Coordinates
version=1
nRows=14
nColumns=36
inDegrees=yes

Units are S.I. units (second, meters, Newtons, ...)
If the header above contains a line with 'inDegrees', this indicates whether rotational values are in degrees (yes) or radians (no).

endheader
time	pelvis_tilt	pelvis_list	pelvis_rotation	pelvis_tx	pelvis_ty	pelvis_tz	hip_flexion_r	hip_adduction_r	hip_rotation_r	knee_angle_r	knee_angle_r_beta	ankle_angle_r	subtalar_angle_r	mtp_angle_r	hip_flexion_l	hip_adduction_l	hip_rotation_l	knee_angle_l	knee_angle_l_beta	ankle_angle_l	subtalar_angle_l	mtp_angle_l	lumbar_extension	lumbar_bending	lumbar_rotation	arm_flex_r	arm_add_r	arm_rot_r	elbow_flex_r	pro_sup_r	arm_flex_l	arm_add_l	arm_rot_l	elbow_flex_l	pro_sup_l
      2.13333330	    -15.83140231	      3.66828153	     -3.94835312	      1.08144002	      1.39623818	      0.09767155	     20.53561982	     -7.51530651	     -3.88320078	     40.26642262	      0.70278165	     -4.82565084	     -5.95546351	     -7.49999987	     20.67375312	     -8.86507356	     -8.76636691	     38.90645275	      0.67904570	    -10.81580929	     -3.83280964	     -7.49999987	     -0.86332106	     -6.71767039	    -10.51682666	     18.53603990	    -42.94007043	     17.73005570	     86.77586718	     72.15838594	    -49.50336642	    -49.57343833	    -36.13742844	     91.21925127	     74.94598326
      2.15000000	    -15.29181606	      3.78456505	     -4.21759571	      1.09495713	      1.38779224	      0.09778267	     24.07694238	     -8.27025615	     -4.80462109	     43.51776259	      0.75952824	     -3.19381445	     -5.09840073	     -7.49999987	     22.18974433	     -9.50503544	     -8.71543960	     39.40603178	      0.68776500	    -13.02465468	     -4.17462129	     -7.49999987	     -2.59387300	     -6.80286596	     -5.19294274	      4.88640493	    -43.40282119	      3.37076049	     88.05482659	     77.14050696	    -41.72098102	    -53.58138186	    -26.51976172	     79.83166743	     74.64826729
      2.16666670	    -15.16678896	      3.88773308	     -4.12954890	      1.09639866	      1.37966043	      0.09871199	     26.97295917	     -8.88507255	     -5.88603969	     43.40462007	      0.75755353	     -2.21586267	     -2.91985500	     -7.49999987	     24.49443423	    -10.05584964	     -8.93067821	     38.83797173	      0.67785048	    -14.65544546	     -3.46563312	     -7.49999987	     -4.42182245	     -7.08815375	     -5.73720717	      2.08305087	    -42.58514258	      2.00301802	     83.66639484	     76.60414574	    -44.08230164	    -52.66034565	    -27.81737967	     70.97498425	     73.73289925
      2.18333330	    -15.25179228	      4.08648985	     -3.94719887	      1.11028676	      1.36980419	      0.09864543	     29.04518806	     -9.56135556	     -7.03647502	     40.52885081	      0.70736189	     -1.82504927	     -0.78204072	     -7.49999987	     27.25106383	    -10.42976567	     -9.44613816	     37.81501541	      0.65999653	    -16.23479120	     -3.27002475	     -7.49999987	     -6.08465561	     -7.50132335	     -6.11289678	     -1.91447992	    -42.87254104	      0.60330595	     79.41230602	     76.36618343	    -47.14741991	    -51.01307203	    -29.33165442	     62.56966035	     72.76767531
      2.20000000	    -14.97405463	      4.41106797	     -4.18594682	      1.13342645	      1.35548567	      0.09633807	     30.19818637	    -10.23050812	     -7.58512747	     38.42511627	      0.67064479	     -2.35057441	      0.15540971	     -7.49999987	     28.92164684	    -10.49602918	    -10.03900174	     36.43133399	      0.63584673	    -18.76815611	     -3.88758122	     -7.49999987	     -7.51480025	     -7.83713415	     -5.69503249	     -7.88353668	    -43.89414318	     -1.32216967	     76.59018593	     77.01874037	    -50.32046737	    -49.03933529	    -29.74001966	     55.40640864	     66.88870714
      2.21666670	    -15.12618737	      4.44433319	     -3.75481821	      1.16163384	      1.33468988	      0.10182322	     31.31527648	    -10.66845025	     -8.63833848	     36.33759818	      0.63421073	     -3.99859107	      0.92255240	     -7.49999987	     30.68741347	    -10.50672813	    -10.33387534	     34.80557429	      0.60747187	    -18.24490924	     -4.01656815	     -7.49999987	     -8.51044809	     -8.20920370	     -4.89138748	    -17.09788707	    -44.26909462	     -4.52557666	     73.89140845	     76.69537218	    -54.49335969	    -47.12862557	    -30.97081520	     50.90750891	     65.67865086
      2.23333330	    -15.59224072	      3.87513808	     -3.53210248	      1.17320868	      1.31884024	      0.10321904	     31.82447798	    -10.28675034	    -10.22379623	     32.17628324	      0.56158208	     -5.73239228	      1.61238550	     -7.49999987	     31.79754755	    -11.38184991	    -11.80962634	     30.42691385	      0.53104983	    -20.91031462	     -3.60100621	     -7.49999987	     -9.69246922	     -8.07405535	     -5.62445461	    -22.02359201	    -44.07624051	     -4.12849563	     70.57303563	     77.15923582	    -57.41599664	    -43.62411363	    -29.87604125	     47.76673164	     65.86353175
      2.25000000	    -16.45076829	      3.05654716	     -3.37104496	      1.18566131	      1.29312093	      0.10276705	     33.17755997	     -9.38585063	    -11.39543208	     28.13907139	      0.49111944	     -8.42433644	      1.43031077	     -7.49999987	     33.15059199	    -12.38850764	    -12.94940111	     25.93726020	      0.45269059	    -25.57068628	     -4.49399188	     -7.49999987	     -9.73147195	     -7.69218049	     -5.00579571	    -27.74108783	    -43.84120027	     -2.51126832	     65.60472783	     77.57627222	    -58.58143433	    -40.30985978	    -28.35333651	     42.94966928	     66.11219337
      2.26666670	    -16.81741827	      2.80957218	     -3.59539022	      1.20180008	      1.26921256	      0.09715045	     34.30294120	     -9.15942962	    -11.98600742	     24.60926057	      0.42951262	    -11.00537443	      2.21554717	     -7.49999987	     34.40138453	    -12.45222648	    -14.65621945	     21.98321581	      0.38367950	    -28.24910162	     -4.04809092	     -7.49999987	    -10.60086369	     -7.37855190	     -4.54658270	    -33.78258805	    -45.99486651	      1.69935102	     64.70338662	     72.64097066	    -62.66447725	    -39.68559181	    -24.99928325	     43.78310434	     65.92769173
      2.28333330	    -17.08761191	      2.77126333	     -3.67674847	      1.21831453	      1.23301944	      0.09586877	     35.80209132	     -9.22773705	    -12.68572548	     22.06420351	      0.38509300	    -12.72962541	      2.32199316	     -7.49999987	     35.79764368	    -12.17506349	    -15.10337503	     19.42801965	      0.33908291	    -28.40877916	     -3.95589087	     -7.49999987	    -11.55588981	     -7.21364401	     -4.89254499	    -40.21468548	    -48.73093146	      7.60788543	     65.58747673	     69.55769387	    -70.52069972	    -38.59708127	    -26.37243259	     50.76184336	     67.52450541
      2.30000000	    -16.88291077	      2.76650253	     -3.54117264	      1.22886061	      1.20710733	      0.09356457	     36.87247870	     -9.52600187	    -13.48605925	     19.90374468	      0.34738588	    -13.50587575	      3.69558755	     -7.49999987	     37.03955843	    -11.84057410	    -15.19054124	     17.82417098	      0.31109047	    -28.42069871	     -3.50487396	     -7.49999987	    -13.38994796	     -6.82582070	     -5.62972387	    -44.70025846	    -50.16153790	     10.74603167	     66.54801603	     68.79033023	    -75.87078052	    -37.81151508	    -27.10570444	     57.98988969	     68.81120104
      2.31666670	    -16.64921167	      2.82691734	     -3.04811279	      1.24424384	      1.17486265	      0.09810498	     38.16529304	     -9.87238129	    -13.90919135	     18.34032666	      0.32009909	    -13.90803852	      3.85330493	     -7.49999987	     38.28558343	    -11.20550570	    -15.49707204	     16.69235120	      0.29133649	    -29.01819360	     -3.39556612	     -7.49999987	    -15.07877468	     -7.11010544	     -9.39788345	    -42.71235137	    -52.82817442	     19.28844558	     65.23020449	     65.20019251	    -81.63409394	    -32.85044355	    -32.26661448	     65.49395856	     77.67565649
      2.33333330	    -16.15670895	      3.07695673	     -3.01026640	      1.26683597	      1.13433098	      0.09460427	     39.10526608	    -10.34074501	    -14.48230553	     17.44921270	      0.30454621	    -13.37750891	      3.85997636	     -7.49999987	     38.25579735	    -10.60546741	    -15.69040729	     15.82805149	      0.27625161	    -29.07255829	     -3.78001209	     -7.49999987	    -16.23691704	     -6.95419621	    -10.65291984	    -46.48609113	    -53.01912626	     20.39716646	     65.78998861	     64.72039129	    -86.73906648	    -31.45293974	    -33.45407585	     74.28035636	     79.28721575
      2.35000000	    -15.52718577	      3.19973610	     -2.66428962	      1.28659768	      1.09607423	      0.09684203	     40.02610086	    -11.10036976	    -14.58860683	     17.97434803	      0.31371155	    -12.15325193	      4.75459110	     -7.49999987	     38.75615965	    -10.28803403	    -15.33539881	     17.40340724	      0.30374676	    -27.61061593	     -4.66982077	     -7.49999987	    -17.69608141	     -6.57045721	    -12.82254765	    -47.97941172	    -52.38336336	     20.00183461	     66.36029479	     64.63086741	    -88.72537737	    -28.61709091	    -33.45238712	     80.50029493	     79.86389415
